<svg width="142" height="96.8" viewBox="0 0 142 96.8" xmlns="http://www.w3.org/2000/svg"><g id="svgGroup" stroke-linecap="round" fill-rule="evenodd" font-size="9pt" stroke="#00000000" stroke-width="0.25mm" fill="#ffffff" style="stroke:#00000000;stroke-width:0.25mm;fill:#ffffff"><path d="M 0 53.2 L 0 43.7 A 11.721 11.721 0 0 0 2.576 43.436 Q 4.25 43.058 5.462 42.143 A 6.565 6.565 0 0 0 6.75 40.85 A 10.659 10.659 0 0 0 8.866 35.059 A 13.475 13.475 0 0 0 8.9 34.1 L 8.9 19.4 A 41.912 41.912 0 0 1 9.098 15.225 Q 9.322 12.989 9.8 11.05 A 14.646 14.646 0 0 1 11.203 7.417 A 12.386 12.386 0 0 1 13 4.95 Q 15.165 2.644 18.926 1.401 A 21.36 21.36 0 0 1 19.4 1.25 A 25.024 25.024 0 0 1 22.798 0.488 Q 24.543 0.214 26.572 0.094 A 56.385 56.385 0 0 1 29.9 0 L 30.6 0 L 30.6 9.6 Q 28.38 9.6 26.687 9.835 A 16.771 16.771 0 0 0 25.7 10 A 8.682 8.682 0 0 0 24.233 10.422 Q 23.222 10.819 22.5 11.45 A 5.651 5.651 0 0 0 21.117 13.309 A 7.302 7.302 0 0 0 20.75 14.25 A 10.44 10.44 0 0 0 20.415 15.696 Q 20.2 17.013 20.2 18.7 L 20.2 33 A 37.821 37.821 0 0 1 20.033 36.674 Q 19.691 40.165 18.65 42.55 A 12.43 12.43 0 0 1 14.916 47.334 A 15.894 15.894 0 0 1 13.4 48.4 A 14.253 14.253 0 0 1 16.624 51.094 A 12.082 12.082 0 0 1 18.65 54.3 Q 19.776 56.916 20.084 60.746 A 38.179 38.179 0 0 1 20.2 63.8 L 20.2 78.2 A 21.792 21.792 0 0 0 20.265 79.938 Q 20.333 80.784 20.472 81.501 A 9.34 9.34 0 0 0 20.75 82.6 A 6.624 6.624 0 0 0 21.518 84.223 A 5.571 5.571 0 0 0 22.5 85.35 Q 23.627 86.337 25.461 86.749 A 10.174 10.174 0 0 0 25.7 86.8 A 18.17 18.17 0 0 0 27.327 87.044 Q 28.788 87.2 30.6 87.2 L 30.6 96.8 Q 25.961 96.8 22.521 96.225 A 25.742 25.742 0 0 1 19.7 95.6 Q 15.891 94.512 13.562 92.395 A 11.068 11.068 0 0 1 13.1 91.95 A 12.714 12.714 0 0 1 10.048 86.782 A 15.308 15.308 0 0 1 9.8 85.9 A 28.362 28.362 0 0 1 9.154 82.261 Q 8.9 80.05 8.9 77.5 L 8.9 62.7 A 11.319 11.319 0 0 0 8.181 58.624 A 10.461 10.461 0 0 0 6.75 56.05 A 6.822 6.822 0 0 0 2.99 53.568 Q 1.653 53.2 0 53.2 Z M 142 43.7 L 142 53.2 A 11.721 11.721 0 0 0 139.424 53.465 Q 137.75 53.842 136.538 54.758 A 6.565 6.565 0 0 0 135.25 56.05 A 10.663 10.663 0 0 0 133.105 62.346 A 13.202 13.202 0 0 0 133.1 62.7 L 133.1 77.5 Q 133.1 82.3 132.2 85.9 Q 131.3 89.5 128.9 91.95 A 12.381 12.381 0 0 1 125.842 94.2 Q 124.465 94.933 122.786 95.455 A 21.877 21.877 0 0 1 122.3 95.6 A 26.68 26.68 0 0 1 118.958 96.308 Q 117.172 96.577 115.079 96.699 A 63.342 63.342 0 0 1 111.4 96.8 L 111.4 87.2 Q 115.996 87.2 118.394 86.039 A 5.768 5.768 0 0 0 119.5 85.35 Q 121.606 83.656 121.784 79.07 A 22.478 22.478 0 0 0 121.8 78.2 L 121.8 63.8 A 36.675 36.675 0 0 1 121.979 60.056 Q 122.164 58.261 122.539 56.748 A 15.837 15.837 0 0 1 123.35 54.3 Q 124.9 50.7 128.6 48.4 A 14.505 14.505 0 0 1 125.458 45.81 A 12.027 12.027 0 0 1 123.35 42.55 Q 122.257 40.047 121.935 36.325 A 38.634 38.634 0 0 1 121.8 33 L 121.8 18.7 A 21.828 21.828 0 0 0 121.729 16.882 Q 121.602 15.371 121.25 14.25 A 6.841 6.841 0 0 0 120.565 12.719 A 5.475 5.475 0 0 0 119.5 11.45 Q 118.373 10.464 116.539 10.051 A 10.174 10.174 0 0 0 116.3 10 Q 114.3 9.6 111.4 9.6 L 111.4 0 L 112.1 0 A 54.194 54.194 0 0 1 116.228 0.148 Q 118.27 0.304 120.007 0.626 A 23.742 23.742 0 0 1 122.6 1.25 Q 126.298 2.378 128.532 4.481 A 10.769 10.769 0 0 1 129 4.95 A 12.88 12.88 0 0 1 131.73 9.484 A 15.999 15.999 0 0 1 132.2 11.05 Q 133.072 14.586 133.099 19.107 A 48.583 48.583 0 0 1 133.1 19.4 L 133.1 34.1 A 11.872 11.872 0 0 0 133.672 37.843 A 10.348 10.348 0 0 0 135.25 40.85 A 6.822 6.822 0 0 0 139.01 43.332 Q 140.347 43.7 142 43.7 Z M 51.982 74.422 A 8.501 8.501 0 0 0 52.4 71.7 A 10.068 10.068 0 0 0 52.39 71.241 A 7.519 7.519 0 0 0 50.05 65.95 Q 47.7 63.7 44.4 63.7 A 10.16 10.16 0 0 0 44.241 63.701 A 7.801 7.801 0 0 0 38.7 65.95 A 7.379 7.379 0 0 0 36.84 68.877 A 8.703 8.703 0 0 0 36.4 71.7 A 9.998 9.998 0 0 0 36.432 72.503 A 7.352 7.352 0 0 0 38.7 77.4 A 7.713 7.713 0 0 0 41.376 79.088 A 8.654 8.654 0 0 0 44.4 79.6 Q 47.7 79.6 50.05 77.4 A 7.148 7.148 0 0 0 51.982 74.422 Z M 78.582 74.422 A 8.501 8.501 0 0 0 79 71.7 A 10.068 10.068 0 0 0 78.99 71.241 A 7.519 7.519 0 0 0 76.65 65.95 Q 74.3 63.7 71 63.7 A 10.16 10.16 0 0 0 70.841 63.701 A 7.801 7.801 0 0 0 65.3 65.95 A 7.379 7.379 0 0 0 63.44 68.877 A 8.703 8.703 0 0 0 63 71.7 A 9.998 9.998 0 0 0 63.032 72.503 A 7.352 7.352 0 0 0 65.3 77.4 A 7.713 7.713 0 0 0 67.976 79.088 A 8.654 8.654 0 0 0 71 79.6 Q 74.3 79.6 76.65 77.4 A 7.148 7.148 0 0 0 78.582 74.422 Z M 105.182 74.422 A 8.501 8.501 0 0 0 105.6 71.7 A 10.068 10.068 0 0 0 105.59 71.241 A 7.519 7.519 0 0 0 103.25 65.95 Q 100.9 63.7 97.6 63.7 A 10.16 10.16 0 0 0 97.441 63.701 A 7.801 7.801 0 0 0 91.9 65.95 A 7.379 7.379 0 0 0 90.04 68.877 A 8.703 8.703 0 0 0 89.6 71.7 A 9.998 9.998 0 0 0 89.632 72.503 A 7.352 7.352 0 0 0 91.9 77.4 A 7.713 7.713 0 0 0 94.576 79.088 A 8.654 8.654 0 0 0 97.6 79.6 Q 100.9 79.6 103.25 77.4 A 7.148 7.148 0 0 0 105.182 74.422 Z" vector-effect="non-scaling-stroke"/></g></svg>