<svg width="130.4" height="96.8" viewBox="0 0 130.4 96.8" xmlns="http://www.w3.org/2000/svg"><g id="svgGroup" stroke-linecap="round" fill-rule="evenodd" font-size="9pt" stroke="#03030300" stroke-width="0" fill="#ffffff" style="stroke:#03030300;stroke-width:0;fill:#ffffff"><path d="M 0 96.8 L 0 0 L 24.8 0 L 24.8 9.6 L 11.4 9.6 L 11.4 87.2 L 24.8 87.2 L 24.8 96.8 L 0 96.8 Z M 130.4 96.8 L 105.6 96.8 L 105.6 87.2 L 118.9 87.2 L 118.9 9.6 L 105.6 9.6 L 105.6 0 L 130.4 0 L 130.4 96.8 Z M 46.182 74.422 A 8.501 8.501 0 0 0 46.6 71.7 A 10.068 10.068 0 0 0 46.59 71.241 A 7.519 7.519 0 0 0 44.25 65.95 Q 41.9 63.7 38.6 63.7 A 10.16 10.16 0 0 0 38.441 63.701 A 7.801 7.801 0 0 0 32.9 65.95 A 7.379 7.379 0 0 0 31.04 68.877 A 8.703 8.703 0 0 0 30.6 71.7 A 9.998 9.998 0 0 0 30.632 72.502 A 7.352 7.352 0 0 0 32.9 77.4 A 7.713 7.713 0 0 0 35.576 79.088 A 8.654 8.654 0 0 0 38.6 79.6 Q 41.9 79.6 44.25 77.4 A 7.148 7.148 0 0 0 46.182 74.422 Z M 72.782 74.422 A 8.501 8.501 0 0 0 73.2 71.7 A 10.068 10.068 0 0 0 73.19 71.241 A 7.519 7.519 0 0 0 70.85 65.95 Q 68.5 63.7 65.2 63.7 A 10.16 10.16 0 0 0 65.041 63.701 A 7.801 7.801 0 0 0 59.5 65.95 A 7.379 7.379 0 0 0 57.64 68.877 A 8.703 8.703 0 0 0 57.2 71.7 A 9.998 9.998 0 0 0 57.232 72.502 A 7.352 7.352 0 0 0 59.5 77.4 A 7.713 7.713 0 0 0 62.176 79.088 A 8.654 8.654 0 0 0 65.2 79.6 Q 68.5 79.6 70.85 77.4 A 7.148 7.148 0 0 0 72.782 74.422 Z M 99.382 74.422 A 8.501 8.501 0 0 0 99.8 71.7 A 10.068 10.068 0 0 0 99.79 71.241 A 7.519 7.519 0 0 0 97.45 65.95 Q 95.1 63.7 91.8 63.7 A 10.16 10.16 0 0 0 91.641 63.701 A 7.801 7.801 0 0 0 86.1 65.95 A 7.379 7.379 0 0 0 84.24 68.877 A 8.703 8.703 0 0 0 83.8 71.7 A 9.998 9.998 0 0 0 83.832 72.502 A 7.352 7.352 0 0 0 86.1 77.4 A 7.713 7.713 0 0 0 88.776 79.088 A 8.654 8.654 0 0 0 91.8 79.6 Q 95.1 79.6 97.45 77.4 A 7.148 7.148 0 0 0 99.382 74.422 Z" vector-effect="non-scaling-stroke"/></g></svg>